<svg xmlns="http://www.w3.org/2000/svg" viewBox="0 0 40 40"><defs><style>.cls-1{fill:#000;}</style></defs><title>facebook-40x40</title><g id="Layer_2" data-name="Layer 2"><g id="Layer_1-2" data-name="Layer 1"><path class="cls-1" d="M21.7517,32.0086V21.5134h3.5229l.5274-4.09h-4.05V14.8117c0-1.1843.3288-1.9913,2.027-1.9913l2.166-.001V9.1611A28.993,28.993,0,0,0,22.7886,9c-3.1229,0-5.2607,1.9061-5.2607,5.4067v3.0164H13.996v4.09h3.5319V32.0086Z"/><path class="cls-1" d="M20,0A20,20,0,1,0,40,20,20,20,0,0,0,20,0Zm0,37A17,17,0,1,1,37,20,17.0195,17.0195,0,0,1,20,37Z"/></g></g></svg>