<svg xmlns="http://www.w3.org/2000/svg" viewBox="0 0 90 24.5215"><defs><style>.cls-1{fill:#fff;}</style></defs><title>footer-logo-90x26</title><g id="Layer_2" data-name="Layer 2"><g id="Layer_1-2" data-name="Layer 1"><g id="_Group_" data-name="&lt;Group&gt;"><g id="_Group_2" data-name="&lt;Group&gt;"><g id="_Group_3" data-name="&lt;Group&gt;"><path class="cls-1" d="M8.0731.2311H0V3.6718H3.5028V15.5733A.0271.0271,0,0,0,3.53,15.6H6.9705V3.688h3.3513a.1218.1218,0,0,0,.1218-.1218V2.6017A2.3705,2.3705,0,0,0,8.0731.2311Z"/></g><g id="_Group_4" data-name="&lt;Group&gt;"><path class="cls-1" d="M12.3365.2311h-.4395a.1218.1218,0,0,0-.1218.1218V15.6h3.4406V3.11A2.8793,2.8793,0,0,0,12.3365.2311Z"/></g><g id="_Group_5" data-name="&lt;Group&gt;"><path class="cls-1" d="M28.115.256h-1.13a.1218.1218,0,0,0-.1146.08L23.69,9.1358l-2.623-7.3881A2.2417,2.2417,0,0,0,18.955.256H17.0243V15.51h3.66v-5.305l1.897,5.3706H24.8l1.9132-5.3705V15.51h3.6435V2.4977A2.2417,2.2417,0,0,0,28.115.256Z"/></g><g id="_Group_6" data-name="&lt;Group&gt;"><path class="cls-1" d="M38.1515.2357H32.1974a.1218.1218,0,0,0-.1218.1218V15.474a.1218.1218,0,0,0,.1218.1218h9.1621a.1218.1218,0,0,0,.1218-.1218V12.263a.1218.1218,0,0,0-.1218-.1218H35.6773a.1218.1218,0,0,1-.1218-.1218v-2.24a.1218.1218,0,0,1,.1218-.1218h4.1a.1218.1218,0,0,0,.1218-.1218V6.3245a.1218.1218,0,0,0-.1218-.1218H35.652a.1218.1218,0,0,1-.1218-.1218V3.8092a.1218.1218,0,0,1,.1218-.1218h5.7074a.1218.1218,0,0,0,.1218-.1218h0A3.33,3.33,0,0,0,38.1515.2357Z"/></g><g id="_Group_7" data-name="&lt;Group&gt;"><path class="cls-1" d="M84.1707,3.6873h5.7074A.1218.1218,0,0,0,90,3.5655h0a3.33,3.33,0,0,0-3.33-3.33H80.716a.1218.1218,0,0,0-.1218.1218V15.474a.1218.1218,0,0,0,.1218.1218h9.1621A.1218.1218,0,0,0,90,15.474V12.263a.1218.1218,0,0,0-.1218-.1218H84.1959a.1218.1218,0,0,1-.1218-.1218v-2.24a.1218.1218,0,0,1,.1218-.1218h4.1a.1218.1218,0,0,0,.1218-.1218V6.3245a.1218.1218,0,0,0-.1218-.1218H84.1707a.1218.1218,0,0,1-.1218-.1218V3.8092A.1218.1218,0,0,1,84.1707,3.6873Z"/></g><g id="_Group_8" data-name="&lt;Group&gt;"><path class="cls-1" d="M64.3178,2.1008A2.5938,2.5938,0,0,0,61.8289.2372H59.2476a.1218.1218,0,0,0-.1169.0875l-4.434,15.1134a.1218.1218,0,0,0,.1169.1561h3.675a.1218.1218,0,0,0,.1155-.0832l.9135-2.7324.0085-.0255h3.7621a.1218.1218,0,0,1,.1155.0832l.8942,2.6747a.1218.1218,0,0,0,.1155.0832h3.7a.1219.1219,0,0,0,.1169-.1562Zm-1.9392,7.692H60.4863a.1219.1219,0,0,1-.1176-.1537l.9739-3.6a.1218.1218,0,0,1,.2357.0017l.9184,3.6A.1218.1218,0,0,1,62.3786,9.7928Z"/></g><g id="_Group_9" data-name="&lt;Group&gt;"><path class="cls-1" d="M76.5482,9.4267a4.3568,4.3568,0,0,0,2.5633-4.2638c0-4.8164-3.606-4.9257-4.4129-4.9257H69.7015A.1218.1218,0,0,0,69.58.359V15.4724a.1218.1218,0,0,0,.1218.1218h3.2363a.1218.1218,0,0,0,.1218-.1218V10.6251a.1218.1218,0,0,1,.2359-.0428l1.8526,4.933a.1218.1218,0,0,0,.1141.079h3.6632a.1218.1218,0,0,0,.1117-.1706l-2.55-5.8386A.12.12,0,0,1,76.5482,9.4267ZM74.3137,7.081H73.25a.1218.1218,0,0,1-.1218-.1218V3.3019A.1218.1218,0,0,1,73.25,3.18h1.0635s1.2787,0,1.2787,1.95S74.3137,7.081,74.3137,7.081Z"/></g><g id="_Group_10" data-name="&lt;Group&gt;"><path class="cls-1" d="M48.6779,3.5749h0a2.3616,2.3616,0,0,1,2.338,2.0866l.0007,0L54.0415,3.97A5.3674,5.3674,0,0,0,48.8763,0h-.5638a5.3617,5.3617,0,0,0-5.346,5.346v5.14a5.3617,5.3617,0,0,0,5.346,5.346h.5638a5.366,5.366,0,0,0,5.0052-3.4734l-2.92-1.6528a2.3627,2.3627,0,0,1-2.2836,1.7862h0a2.3606,2.3606,0,0,1-2.3537-2.3537V5.9286A2.3606,2.3606,0,0,1,48.6779,3.5749Z"/></g></g><g id="_Group_11" data-name="&lt;Group&gt;"><g id="_Group_12" data-name="&lt;Group&gt;"><path class="cls-1" d="M19.947,19.6607a3.4492,3.4492,0,0,1,2.3078.6359,2.0175,2.0175,0,0,1,.7076,1.55,2.2807,2.2807,0,0,1-1.0051,1.9587,4.2946,4.2946,0,0,1-2.4365.6068H17.4541V24.156c.6353-.0512.7157-.1024.7157-.7235V20.64c0-.6288-.0724-.6725-.6432-.7237v-.2559Zm-.7,3.7279c0,.5264.1207.7091.6835.7091a1.8541,1.8541,0,0,0,1.8174-2.1051,2.101,2.101,0,0,0-.5951-1.579,1.8846,1.8846,0,0,0-1.3107-.4532.8964.8964,0,0,0-.5067.1024c-.0723.0658-.0884.19-.0884.402Z"/></g><g id="_Group_13" data-name="&lt;Group&gt;"><path class="cls-1" d="M27.5365,24.4119V24.156c.5951-.0512.6674-.1024.6674-.7163V20.64c0-.6214-.0723-.6725-.6674-.7237v-.2559h2.4123v.2559c-.595.0512-.6674.1024-.6674.7237V23.44c0,.6139.0724.6651.6674.7163v.2559Z"/></g><g id="_Group_14" data-name="&lt;Group&gt;"><path class="cls-1" d="M37.2092,24.4119V24.156c.4745-.0658.5146-.1533.386-.475-.08-.2193-.201-.5264-.3217-.8261H35.73c-.0884.2267-.193.49-.2894.7821-.1126.3509-.0965.4532.49.519v.2559H34.1295l.0081-.2559c.5308-.0583.6272-.1387.8926-.7529l1.6485-3.757.41-.0949c.5146,1.279,1.0132,2.5509,1.5359,3.8082.2734.6434.378.7383.8846.7967v.2559Zm-.6834-3.5231h-.0242c-.2252.5336-.4262,1.06-.6353,1.5787h1.2545Z"/></g><g id="_Group_15" data-name="&lt;Group&gt;"><path class="cls-1" d="M48.94,24.4777c-.0481,0-.1446-.0072-.2411-.0072-1.0132-.044-1.3269-.2487-1.6485-.7091-.2091-.3-.4262-.6943-.6595-1.0746a.5522.5522,0,0,0-.5306-.3214h-.1528v1.0672c0,.5993.08.6723.6834.7235v.2559H43.9627V24.156c.6031-.0512.6915-.1241.6915-.7235V20.6257c0-.5848-.0723-.6579-.6594-.7091v-.2559h2.26a2.5748,2.5748,0,0,1,1.4314.2779,1.088,1.088,0,0,1,.5466.9722,1.2959,1.2959,0,0,1-1.0051,1.1913c.1125.2122.418.7017.6514,1.038a6.1861,6.1861,0,0,0,.619.7895,1.1811,1.1811,0,0,0,.4906.3143ZM45.9167,22.08a1.2344,1.2344,0,0,0,.788-.1976,1.0073,1.0073,0,0,0,.386-.87.94.94,0,0,0-.9489-1.06.5841.5841,0,0,0-.3619.0732c-.0563.0438-.0723.1167-.0723.27V22.08Z"/></g><g id="_Group_16" data-name="&lt;Group&gt;"><path class="cls-1" d="M53.3054,24.4119V24.156c.595-.0512.6674-.1024.6674-.7163V20.64c0-.6214-.0724-.6725-.6674-.7237v-.2559h2.4125v.2559c-.5953.0512-.6674.1024-.6674.7237V23.44c0,.6139.0722.6651.6674.7163v.2559Z"/></g><g id="_Group_17" data-name="&lt;Group&gt;"><path class="cls-1" d="M64.6507,23.1987c-.0484.3288-.217.994-.2815,1.2133h-4.101V24.156c.6835-.0512.7639-.0949.7639-.7163V20.6329c0-.6359-.08-.6725-.6513-.7163v-.2559h3.7875c.0079.1318.0481.6434.08,1.0966l-.2894.0366a1.4769,1.4769,0,0,0-.33-.6288c-.1367-.1315-.3537-.1827-.8041-.1827h-.3859c-.2976,0-.33.0146-.33.2559v1.55h.5387c.6754,0,.78-.0366.8926-.5482h.2894V22.716h-.2894c-.1126-.5262-.2091-.5553-.8926-.5553H62.11v1.2645c0,.3437.032.5264.193.5993a2.3222,2.3222,0,0,0,.7237.0732,1.2472,1.2472,0,0,0,.8924-.2339,2.7632,2.7632,0,0,0,.45-.7163Z"/></g><g id="_Group_18" data-name="&lt;Group&gt;"><path class="cls-1" d="M72.0312,20.8522c-.1689-.46-.4663-1.0014-1.1258-1.0014a.7312.7312,0,0,0-.78.7237c0,.402.2894.6359.997.9574.8445.3729,1.4234.7823,1.4234,1.5058,0,.8332-.78,1.4838-1.9539,1.4838a3.143,3.143,0,0,1-.8123-.1021,4.0771,4.0771,0,0,1-.4906-.161,8.0984,8.0984,0,0,1-.2331-1.2425l.2815-.0806c.1607.4678.6352,1.2865,1.4073,1.2865a.7388.7388,0,0,0,.8041-.7675c0-.4312-.3539-.7017-.9569-.994-.8284-.38-1.3993-.7749-1.3993-1.4766,0-.8041.7-1.4326,1.8415-1.4326a3.5589,3.5589,0,0,1,1.1176.1973c.0322.27.0885.5922.1528,1.0454Z"/></g></g><g id="_Group_19" data-name="&lt;Group&gt;"><rect class="cls-1" y="22.2054" width="13.4955" height="0.5241"/></g><g id="_Group_20" data-name="&lt;Group&gt;"><rect class="cls-1" x="76.5045" y="22.2054" width="13.4955" height="0.5241"/></g></g></g></g></svg>