<svg xmlns="http://www.w3.org/2000/svg" viewBox="0 0 19 25"><defs><style>.cls-1,.cls-2{fill:none;stroke:#3c3f3f;stroke-miterlimit:10;}.cls-2{stroke-linecap:square;}</style></defs><title>leather-case-19x25</title><g id="Layer_2" data-name="Layer 2"><g id="Layer_1-2" data-name="Layer 1"><path class="cls-1" d="M18.5,4.5V.5H2.5a2,2,0,0,0,0,4h16v20H2.5a2,2,0,0,1-2-2V2.5"/><path class="cls-2" d="M2.5,6.5A3.9213,3.9213,0,0,1,.69,6.0494"/><line class="cls-2" x1="6.5" y1="6.5" x2="4.5" y2="6.5"/><line class="cls-2" x1="10.5" y1="6.5" x2="8.4999" y2="6.5"/><line class="cls-2" x1="14.5" y1="6.5" x2="12.5" y2="6.5"/><line class="cls-2" x1="16.5" y1="8.5" x2="16.5" y2="6.5"/><line class="cls-2" x1="16.5" y1="12.5" x2="16.5" y2="10.5"/><line class="cls-2" x1="16.5" y1="16.5" x2="16.5" y2="14.5"/><line class="cls-2" x1="16.5" y1="20.5" x2="16.5" y2="18.5"/><line class="cls-2" x1="14.5" y1="22.5" x2="16.5" y2="22.5"/><line class="cls-2" x1="10.5" y1="22.5" x2="12.5" y2="22.5"/><line class="cls-2" x1="6.5" y1="22.5" x2="8.4999" y2="22.5"/><path class="cls-2" d="M2.5,22.5h2"/></g></g></svg>