<svg xmlns="http://www.w3.org/2000/svg" viewBox="0 0 103 28.0635"><defs><style>.cls-1{fill:#8c8e8f;}</style></defs><title>nav-logo-104x29</title><g id="Layer_2" data-name="Layer 2"><g id="Layer_1-2" data-name="Layer 1"><g id="_Group_" data-name="&lt;Group&gt;"><g id="_Group_2" data-name="&lt;Group&gt;"><g id="_Group_3" data-name="&lt;Group&gt;"><path class="cls-1" d="M9.2392.2645H0V4.2021H4.0087V17.8228a.031.031,0,0,0,.031.031H7.9774V4.2207h3.8353a.1394.1394,0,0,0,.1394-.1394V2.9775A2.7129,2.7129,0,0,0,9.2392.2645Z"/></g><g id="_Group_4" data-name="&lt;Group&gt;"><path class="cls-1" d="M14.1185.2645h-.5029a.1394.1394,0,0,0-.1394.1394v17.45h3.9376V3.56A3.2952,3.2952,0,0,0,14.1185.2645Z"/></g><g id="_Group_5" data-name="&lt;Group&gt;"><path class="cls-1" d="M32.1761.293H30.8833a.1394.1394,0,0,0-.1311.092l-3.64,10.07L24.1106,2A2.5655,2.5655,0,0,0,21.693.293h-2.21V17.75h4.1883V11.679l2.171,6.1463h2.54l2.19-6.1463V17.75h4.17V2.8585A2.5655,2.5655,0,0,0,32.1761.293Z"/></g><g id="_Group_6" data-name="&lt;Group&gt;"><path class="cls-1" d="M43.6623.27H36.8481a.1394.1394,0,0,0-.1394.1394v17.3a.1394.1394,0,0,0,.1394.1394H47.3336a.1394.1394,0,0,0,.1394-.1394V14.0344a.1394.1394,0,0,0-.1394-.1394h-6.503a.1394.1394,0,0,1-.1394-.1394V11.1917a.1394.1394,0,0,1,.1394-.1394h4.692a.1394.1394,0,0,0,.1394-.1394V7.2381a.1394.1394,0,0,0-.1394-.1394H40.8018a.1394.1394,0,0,1-.1394-.1394v-2.6a.1394.1394,0,0,1,.1394-.1394h6.5318a.1394.1394,0,0,0,.1394-.1394h0A3.8108,3.8108,0,0,0,43.6623.27Z"/></g><g id="_Group_7" data-name="&lt;Group&gt;"><path class="cls-1" d="M96.3287,4.22h6.5318A.1394.1394,0,0,0,103,4.0805h0A3.8108,3.8108,0,0,0,99.1892.27H92.375a.1394.1394,0,0,0-.1394.1394v17.3a.1394.1394,0,0,0,.1394.1394h10.4856A.1394.1394,0,0,0,103,17.7091V14.0344a.1394.1394,0,0,0-.1394-.1394h-6.503a.1394.1394,0,0,1-.1394-.1394V11.1917a.1394.1394,0,0,1,.1394-.1394h4.692a.1394.1394,0,0,0,.1394-.1394V7.2381a.1394.1394,0,0,0-.1394-.1394H96.3287a.1394.1394,0,0,1-.1394-.1394v-2.6A.1394.1394,0,0,1,96.3287,4.22Z"/></g><g id="_Group_8" data-name="&lt;Group&gt;"><path class="cls-1" d="M73.6081,2.4043A2.9685,2.9685,0,0,0,70.76.2715H67.8056a.1394.1394,0,0,0-.1338.1L62.5974,17.6681a.1394.1394,0,0,0,.1338.1787H66.937a.1394.1394,0,0,0,.1322-.0952l1.0455-3.1271.01-.0292H72.43a.1394.1394,0,0,1,.1322.0952l1.0234,3.0611a.1394.1394,0,0,0,.1322.0952h4.2347a.14.14,0,0,0,.1338-.1787Zm-2.2193,8.803H69.2232a.14.14,0,0,1-.1346-.1759l1.1146-4.12a.1394.1394,0,0,1,.27.002l1.051,4.12A.1394.1394,0,0,1,71.3888,11.2073Z"/></g><g id="_Group_9" data-name="&lt;Group&gt;"><path class="cls-1" d="M87.6052,10.7884a4.9861,4.9861,0,0,0,2.9336-4.88c0-5.5121-4.1269-5.6372-5.05-5.6372h-5.719A.1394.1394,0,0,0,79.63.4109V17.7074a.1394.1394,0,0,0,.1394.1394h3.7037a.1394.1394,0,0,0,.1394-.1394V12.16a.1394.1394,0,0,1,.27-.049l2.12,5.6456a.1394.1394,0,0,0,.1306.09h4.1924a.1394.1394,0,0,0,.1278-.1953L87.5348,10.97A.1378.1378,0,0,1,87.6052,10.7884ZM85.0479,8.1038H83.8308a.1394.1394,0,0,1-.1394-.1394V3.7788a.1394.1394,0,0,1,.1394-.1394h1.2172s1.4634,0,1.4634,2.2322S85.0479,8.1038,85.0479,8.1038Z"/></g><g id="_Group_10" data-name="&lt;Group&gt;"><path class="cls-1" d="M55.7091,4.0912h0a2.7027,2.7027,0,0,1,2.6757,2.388l.0007,0,3.4619-1.936A6.1427,6.1427,0,0,0,55.9362,0H55.291a6.1361,6.1361,0,0,0-6.1182,6.1182V12a6.1362,6.1362,0,0,0,6.1182,6.1182h.6452a6.1411,6.1411,0,0,0,5.7282-3.9751l-3.3417-1.8915a2.704,2.704,0,0,1-2.6135,2.0442h0a2.7016,2.7016,0,0,1-2.6936-2.6937V6.7849A2.7016,2.7016,0,0,1,55.7091,4.0912Z"/></g></g><g id="_Group_11" data-name="&lt;Group&gt;"><g id="_Group_12" data-name="&lt;Group&gt;"><path class="cls-1" d="M22.8282,22.5006a3.9474,3.9474,0,0,1,2.6412.7278,2.3089,2.3089,0,0,1,.81,1.7737,2.61,2.61,0,0,1-1.15,2.2417,4.9149,4.9149,0,0,1-2.7885.6944H19.9753v-.2929c.7271-.0586.819-.1172.819-.828V23.6217c0-.72-.0829-.77-.7361-.8283v-.2929Zm-.8007,4.2663c0,.6024.1381.8116.7823.8116a2.1219,2.1219,0,0,0,2.08-2.4092,2.4045,2.4045,0,0,0-.6811-1.807,2.1568,2.1568,0,0,0-1.5-.5187,1.0258,1.0258,0,0,0-.58.1172c-.0827.0753-.1012.2176-.1012.46Z"/></g><g id="_Group_13" data-name="&lt;Group&gt;"><path class="cls-1" d="M31.514,27.9381v-.2929c.6811-.0586.7638-.1172.7638-.82V23.6217c0-.7111-.0827-.77-.7638-.8283v-.2929h2.7608v.2929c-.6809.0586-.7638.1172-.7638.8283v3.2038c0,.7026.0829.7612.7638.82v.2929Z"/></g><g id="_Group_14" data-name="&lt;Group&gt;"><path class="cls-1" d="M42.5839,27.9381v-.2929c.543-.0753.589-.1754.4418-.5436-.0921-.251-.23-.6024-.3681-.9454H40.8906c-.1012.2595-.2208.5606-.3312.895-.1289.4015-.11.5187.5613.594v.2929H39.0593l.0092-.2929c.6074-.0668.7178-.1587,1.0216-.8616l1.8866-4.3.4693-.1087c.589,1.4638,1.1595,2.9194,1.7577,4.3583.3129.7363.4326.8449,1.0123.9117v.2929Zm-.7821-4.032h-.0277c-.2577.6106-.4878,1.2128-.7271,1.8068h1.4357Z"/></g><g id="_Group_15" data-name="&lt;Group&gt;"><path class="cls-1" d="M56.0092,28.0134c-.0551,0-.1655-.0082-.2759-.0082-1.1595-.05-1.5186-.2847-1.8866-.8116-.2393-.343-.4878-.7946-.7547-1.23a.632.632,0,0,0-.6073-.3679H52.31v1.2213c0,.6859.092.7694.7821.828v.2929H50.3129v-.2929c.69-.0586.7914-.142.7914-.828V23.605c0-.6692-.0827-.753-.7546-.8116v-.2929h2.586a2.9467,2.9467,0,0,1,1.6382.3181,1.2451,1.2451,0,0,1,.6256,1.1126,1.4831,1.4831,0,0,1-1.15,1.3633c.1287.2428.4784.8031.7455,1.1879a7.08,7.08,0,0,0,.7085.9035,1.3517,1.3517,0,0,0,.5614.36Zm-3.46-2.7437a1.4127,1.4127,0,0,0,.9018-.2261,1.1528,1.1528,0,0,0,.4418-.9955,1.076,1.076,0,0,0-1.086-1.2128.6685.6685,0,0,0-.4141.0838c-.0644.05-.0827.1336-.0827.3093V25.27Z"/></g><g id="_Group_16" data-name="&lt;Group&gt;"><path class="cls-1" d="M61.0051,27.9381v-.2929c.6809-.0586.7638-.1172.7638-.82V23.6217c0-.7111-.0829-.77-.7638-.8283v-.2929H63.766v.2929c-.6812.0586-.7638.1172-.7638.8283v3.2038c0,.7026.0826.7612.7638.82v.2929Z"/></g><g id="_Group_17" data-name="&lt;Group&gt;"><path class="cls-1" d="M73.9892,26.55c-.0554.3763-.2484,1.1375-.3222,1.3885H68.9737v-.2929c.7823-.0586.8742-.1087.8742-.82V23.6132c0-.7278-.092-.77-.7454-.82v-.2929h4.3346c.0091.1508.0551.7363.092,1.255l-.3312.0419a1.69,1.69,0,0,0-.3775-.72c-.1564-.1505-.4048-.2091-.92-.2091h-.4417c-.3406,0-.3772.0167-.3772.2929v1.7734h.6165c.7729,0,.8927-.0419,1.0216-.6273h.3312v1.69h-.3312c-.1289-.6022-.2393-.6355-1.0216-.6355h-.6165v1.4471c0,.3933.0366.6024.2208.6859a2.6576,2.6576,0,0,0,.8283.0838,1.4274,1.4274,0,0,0,1.0213-.2677,3.1623,3.1623,0,0,0,.5155-.82Z"/></g><g id="_Group_18" data-name="&lt;Group&gt;"><path class="cls-1" d="M82.4357,23.8642c-.1933-.5269-.5336-1.146-1.2884-1.146a.8368.8368,0,0,0-.8927.8283c0,.46.3312.7278,1.141,1.0957.9665.4267,1.629.8953,1.629,1.7233,0,.9536-.8927,1.6981-2.2361,1.6981a3.597,3.597,0,0,1-.93-.1169,4.666,4.666,0,0,1-.5614-.1842,9.2682,9.2682,0,0,1-.2668-1.4219l.3222-.0923c.1839.5354.7269,1.4723,1.6105,1.4723a.8455.8455,0,0,0,.92-.8783c0-.4935-.405-.8031-1.0951-1.1375-.948-.4349-1.6014-.8868-1.6014-1.69,0-.92.8007-1.64,2.1075-1.64a4.073,4.073,0,0,1,1.279.2258c.0369.31.1013.6777.1748,1.1964Z"/></g></g><g id="_Group_19" data-name="&lt;Group&gt;"><rect class="cls-1" y="25.4129" width="15.4448" height="0.5998"/></g><g id="_Group_20" data-name="&lt;Group&gt;"><rect class="cls-1" x="87.5551" y="25.4129" width="15.4448" height="0.5998"/></g></g></g></g></svg>