<svg xmlns="http://www.w3.org/2000/svg" viewBox="0 0 26 22.9096"><defs><style>.cls-1{fill:none;stroke:#8c8e8f;stroke-linecap:square;stroke-miterlimit:10;}</style></defs><title>phone-26x23</title><g id="Layer_2" data-name="Layer 2"><g id="Layer_1-2" data-name="Layer 1"><path class="cls-1" d="M2.95,1.4762a52.3182,52.3182,0,0,1,20.09-.0056A3.0189,3.0189,0,0,1,25.5,4.4282V6.6a1.81,1.81,0,0,1-1.81,1.81H20.31A1.81,1.81,0,0,1,18.5,6.6V4.91a68.7277,68.7277,0,0,0-11,0V6.6A1.81,1.81,0,0,1,5.69,8.41H2.31A1.81,1.81,0,0,1,.5,6.6V4.4317A3.0121,3.0121,0,0,1,2.95,1.4762Z"/><path class="cls-1" d="M23.5,22.41H2.5v-4a9,9,0,0,1,9-9h3a9,9,0,0,1,9,9Z"/><line class="cls-1" x1="11.5" y1="7.4096" x2="11.5" y2="9.4096"/><line class="cls-1" x1="14.5" y1="7.4096" x2="14.5" y2="9.4096"/><circle class="cls-1" cx="13" cy="15.9096" r="3.5"/></g></g></svg>